<svg xmlns="http://www.w3.org/2000/svg" width="118.232" height="143.46" viewBox="0 0 118.232 143.46">
  <g id="Group_372" data-name="Group 372" transform="translate(-214.035 -572.386)">
    <g id="Rectangle_24" data-name="Rectangle 24" transform="matrix(0.891, 0.454, -0.454, 0.891, 244.378, 611.845)" fill="none" stroke="#eee" stroke-width="1">
      <rect width="27.14" height="24.939" rx="5" stroke="none"/>
      <rect x="0.5" y="0.5" width="26.14" height="23.939" rx="4.5" fill="none"/>
    </g>
    <g id="Rectangle_25" data-name="Rectangle 25" transform="translate(263.49 689.749) rotate(159)" fill="none" stroke="#eee" stroke-width="1">
      <rect width="26" height="24" rx="5" stroke="none"/>
      <rect x="0.5" y="0.5" width="25" height="23" rx="4.5" fill="none"/>
    </g>
    <g id="Rectangle_26" data-name="Rectangle 26" transform="translate(223.059 647.816) rotate(-8)" fill="none" stroke="#eee" stroke-width="1">
      <rect width="21.459" height="19.719" rx="5" stroke="none"/>
      <rect x="0.5" y="0.5" width="20.459" height="18.719" rx="4.5" fill="none"/>
    </g>
    <g id="Rectangle_27" data-name="Rectangle 27" transform="translate(256.909 652.999) rotate(-21)" fill="none" stroke="#eee" stroke-width="1">
      <rect width="30" height="27" rx="5" stroke="none"/>
      <rect x="0.5" y="0.5" width="29" height="26" rx="4.5" fill="none"/>
    </g>
    <g id="Rectangle_28" data-name="Rectangle 28" transform="translate(271.909 625.27) rotate(-21)" fill="none" stroke="#eee" stroke-width="1">
      <rect width="15" height="14" rx="5" stroke="none"/>
      <rect x="0.5" y="0.5" width="14" height="13" rx="4.5" fill="none"/>
    </g>
    <g id="Rectangle_29" data-name="Rectangle 29" transform="translate(221.059 604.777) rotate(-6)" fill="none" stroke="#eee" stroke-width="1">
      <rect width="17" height="16" rx="5" stroke="none"/>
      <rect x="0.5" y="0.5" width="16" height="15" rx="4.5" fill="none"/>
    </g>
    <g id="Rectangle_30" data-name="Rectangle 30" transform="translate(217.271 699.27) rotate(-21)" fill="none" stroke="#eee" stroke-width="1">
      <rect width="15" height="14" rx="5" stroke="none"/>
      <rect x="0.5" y="0.5" width="14" height="13" rx="4.5" fill="none"/>
    </g>
    <g id="Rectangle_31" data-name="Rectangle 31" transform="translate(263.753 690.797) rotate(-8)" fill="none" stroke="#eee" stroke-width="1">
      <rect width="21.459" height="19.719" rx="5" stroke="none"/>
      <rect x="0.5" y="0.5" width="20.459" height="18.719" rx="4.5" fill="none"/>
    </g>
    <g id="Rectangle_136" data-name="Rectangle 136" transform="translate(242.515 576) rotate(37)" fill="none" stroke="#eee" stroke-width="1">
      <rect width="22.463" height="20.217" rx="5" stroke="none"/>
      <rect x="0.5" y="0.5" width="21.463" height="19.217" rx="4.5" fill="none"/>
    </g>
    <g id="Rectangle_137" data-name="Rectangle 137" transform="translate(259.531 597.112) rotate(-21)" fill="none" stroke="#eee" stroke-width="1">
      <rect width="22.463" height="20.217" rx="5" stroke="none"/>
      <rect x="0.5" y="0.5" width="21.463" height="19.217" rx="4.5" fill="none"/>
    </g>
    <g id="Rectangle_138" data-name="Rectangle 138" transform="translate(288.011 678.094) rotate(-21)" fill="none" stroke="#eee" stroke-width="1">
      <rect width="21.236" height="19.113" rx="5" stroke="none"/>
      <rect x="0.5" y="0.5" width="20.236" height="18.113" rx="4.5" fill="none"/>
    </g>
    <g id="Rectangle_139" data-name="Rectangle 139" transform="translate(332.267 695.334) rotate(105)" fill="none" stroke="#eee" stroke-width="1">
      <rect width="21.236" height="19.113" rx="5" stroke="none"/>
      <rect x="0.5" y="0.5" width="20.236" height="18.113" rx="4.5" fill="none"/>
    </g>
    <g id="Rectangle_140" data-name="Rectangle 140" transform="translate(315.728 642.375) rotate(105)" fill="none" stroke="#eee" stroke-width="1">
      <rect width="18.481" height="17.254" rx="5" stroke="none"/>
      <rect x="0.5" y="0.5" width="17.481" height="16.254" rx="4.5" fill="none"/>
    </g>
    <g id="Rectangle_141" data-name="Rectangle 141" transform="translate(214.035 577.762) rotate(-21)" fill="none" stroke="#eee" stroke-width="1">
      <rect width="15" height="14" rx="5" stroke="none"/>
      <rect x="0.5" y="0.5" width="14" height="13" rx="4.5" fill="none"/>
    </g>
  </g>
</svg>
