<svg xmlns="http://www.w3.org/2000/svg" style="fill:#1DCDFE" width="79.127" height="80" viewBox="0 0 79.127 80">
  <g id="_3135763" data-name="3135763" transform="translate(-2.794 0)">
    <g id="Group_260" data-name="Group 260" transform="translate(2.794 0)">
      <path id="Path_102" data-name="Path 102" d="M90.459,181.506h-30a1.172,1.172,0,1,0,0,2.343h30a1.172,1.172,0,1,0,0-2.343Z" transform="translate(-50.463 -153.146)" fill="#1dcdfe"/>
      <path id="Path_103" data-name="Path 103" d="M90.459,234.2h-30a1.172,1.172,0,1,0,0,2.343h30a1.172,1.172,0,1,0,0-2.343Z" transform="translate(-50.463 -197.608)" fill="#1dcdfe"/>
      <path id="Path_104" data-name="Path 104" d="M90.459,286.9h-30a1.172,1.172,0,1,0,0,2.343h30a1.172,1.172,0,1,0,0-2.343Z" transform="translate(-50.463 -242.069)" fill="#1dcdfe"/>
      <path id="Path_105" data-name="Path 105" d="M91.631,340.766a1.172,1.172,0,0,0-1.172-1.172h-30a1.172,1.172,0,0,0,0,2.343h30A1.172,1.172,0,0,0,91.631,340.766Z" transform="translate(-50.463 -286.532)" fill="#1dcdfe"/>
      <path id="Path_106" data-name="Path 106" d="M60.462,416.821a1.172,1.172,0,0,0,0,2.343H75.5a1.172,1.172,0,0,0,0-2.343Z" transform="translate(-50.463 -351.693)" fill="#1dcdfe"/>
      <path id="Path_107" data-name="Path 107" d="M186.915,58.136v-3.8a2.63,2.63,0,0,0-2.627-2.627H160.231a2.63,2.63,0,0,0-2.627,2.627v3.8a2.63,2.63,0,0,0,2.627,2.627h2.032a1.172,1.172,0,0,0,0-2.343h-2.032a.283.283,0,0,1-.283-.283v-3.8a.284.284,0,0,1,.283-.283h24.057a.284.284,0,0,1,.283.283v3.8a.284.284,0,0,1-.283.283H167.74a1.172,1.172,0,1,0,0,2.343h16.548A2.629,2.629,0,0,0,186.915,58.136Z" transform="translate(-133.415 -43.628)" fill="#1dcdfe"/>
      <path id="Path_108" data-name="Path 108" d="M65.056,71.452a1.172,1.172,0,0,0-1.172,1.172V74.2a3.458,3.458,0,0,1-3.454,3.454H8.592A3.458,3.458,0,0,1,5.137,74.2V17.879a3.478,3.478,0,0,1,.083-.744H15.889a4.044,4.044,0,0,0,4.04-4.04V2.426a3.476,3.476,0,0,1,.744-.083H60.429A3.458,3.458,0,0,1,63.884,5.8V21.4a1.172,1.172,0,0,0,2.343,0V5.8a5.8,5.8,0,0,0-5.8-5.8H20.673a5.76,5.76,0,0,0-4.1,1.7L4.492,13.78a5.76,5.76,0,0,0-1.7,4.1V74.2a5.8,5.8,0,0,0,5.8,5.8H60.429a5.8,5.8,0,0,0,5.8-5.8V72.624a1.172,1.172,0,0,0-1.172-1.172ZM17.586,4V13.1a1.7,1.7,0,0,1-1.7,1.7H6.795Z" transform="translate(-2.794 0)" fill="#1dcdfe"/>
      <path id="Path_109" data-name="Path 109" d="M326.245,180.678a4.685,4.685,0,0,0-2.29-7.048,2.328,2.328,0,0,1-1.55-2.133,4.686,4.686,0,0,0-6-4.356,2.328,2.328,0,0,1-2.508-.815,4.685,4.685,0,0,0-7.411,0,2.329,2.329,0,0,1-2.508.815,4.685,4.685,0,0,0-6,4.356,2.328,2.328,0,0,1-1.55,2.133,4.685,4.685,0,0,0-2.29,7.048,2.329,2.329,0,0,1,0,2.637,4.685,4.685,0,0,0,2.29,7.048,2.328,2.328,0,0,1,1.55,2.133,4.685,4.685,0,0,0,4.046,4.5v10.668a2.487,2.487,0,0,0,3.791,2.118l4.3-2.646a.123.123,0,0,1,.15,0l4.3,2.646a2.487,2.487,0,0,0,3.791-2.118V197a4.685,4.685,0,0,0,4.046-4.5,2.328,2.328,0,0,1,1.55-2.133,4.685,4.685,0,0,0,2.29-7.048A2.327,2.327,0,0,1,326.245,180.678ZM315.8,207.787l-4.3-2.646a2.487,2.487,0,0,0-2.607,0l-4.3,2.645a.143.143,0,0,1-.219-.122V196.774a2.325,2.325,0,0,1,2.114.893,4.685,4.685,0,0,0,7.411,0,2.325,2.325,0,0,1,2.114-.893v10.891a.143.143,0,0,1-.219.122Zm8.511-23.152a2.342,2.342,0,0,1-1.145,3.523,4.658,4.658,0,0,0-3.1,4.268,2.31,2.31,0,0,1-.843,1.73,2.333,2.333,0,0,1-2.153.448,4.66,4.66,0,0,0-5.018,1.63,2.342,2.342,0,0,1-3.7,0,4.655,4.655,0,0,0-3.691-1.821,4.731,4.731,0,0,0-1.327.191,2.332,2.332,0,0,1-2.154-.448,2.308,2.308,0,0,1-.843-1.73,4.659,4.659,0,0,0-3.1-4.269,2.342,2.342,0,0,1-1.145-3.523,4.659,4.659,0,0,0,0-5.276,2.342,2.342,0,0,1,1.145-3.523,4.659,4.659,0,0,0,3.1-4.269,2.342,2.342,0,0,1,3-2.177,4.659,4.659,0,0,0,5.018-1.63,2.342,2.342,0,0,1,3.7,0,4.659,4.659,0,0,0,5.018,1.63,2.342,2.342,0,0,1,3,2.177,4.659,4.659,0,0,0,3.1,4.269,2.342,2.342,0,0,1,1.145,3.523,4.659,4.659,0,0,0,0,5.277Z" transform="translate(-247.934 -138.803)" fill="#1dcdfe"/>
      <path id="Path_110" data-name="Path 110" d="M348.235,213.583a9.821,9.821,0,1,0,9.821,9.821A9.832,9.832,0,0,0,348.235,213.583Zm0,17.3a7.477,7.477,0,1,1,7.477-7.477A7.486,7.486,0,0,1,348.235,230.881Z" transform="translate(-285.973 -180.211)" fill="#1dcdfe"/>
    </g>
  </g>
</svg>
