<svg style="fill:#1DCDFE" xmlns="http://www.w3.org/2000/svg" width="83.341" height="85.25" viewBox="0 0 83.341 85.25">
  <g id="_899800" data-name="899800" transform="translate(-5.522 0)">
    <g id="Group_262" data-name="Group 262" transform="translate(5.522 0)">
      <g id="Group_261" data-name="Group 261" transform="translate(0 0)">
        <path id="Path_112" data-name="Path 112" d="M88.817,78.5v0L68.058,1.024a1.383,1.383,0,0,0-1.69-.978l-18.7,5.011a1.35,1.35,0,0,0-.655.433V2.522a1.383,1.383,0,0,0-1.383-1.383H6.9A1.383,1.383,0,0,0,5.522,2.522V82.727A1.383,1.383,0,0,0,6.9,84.11h38.72a1.383,1.383,0,0,0,1.383-1.383V7.953L67.444,84.225a1.383,1.383,0,0,0,1.336,1.025,1.432,1.432,0,0,0,.354-.047l18.7-5.011A1.383,1.383,0,0,0,88.817,78.5ZM24.882,81.345H8.288V3.9H24.882Zm19.36,0H27.648V3.9H44.242Zm25.515.83L49.715,7.371l16.029-4.3,20.042,74.8Z" transform="translate(-5.522 0)" fill="#1dcdfe"/>
      </g>
    </g>
    <g id="Group_264" data-name="Group 264" transform="translate(11.053 9.436)">
      <g id="Group_263" data-name="Group 263">
        <path id="Path_113" data-name="Path 113" d="M47.2,54.589H38.9a1.383,1.383,0,1,0,0,2.766h8.3a1.383,1.383,0,1,0,0-2.766Z" transform="translate(-37.522 -54.589)" fill="#1dcdfe"/>
      </g>
    </g>
    <g id="Group_266" data-name="Group 266" transform="translate(11.053 14.967)">
      <g id="Group_265" data-name="Group 265">
        <path id="Path_114" data-name="Path 114" d="M47.2,86.589H38.9a1.383,1.383,0,1,0,0,2.766h8.3a1.383,1.383,0,1,0,0-2.766Z" transform="translate(-37.522 -86.589)" fill="#1dcdfe"/>
      </g>
    </g>
    <g id="Group_268" data-name="Group 268" transform="translate(30.413 9.436)">
      <g id="Group_267" data-name="Group 267">
        <path id="Path_115" data-name="Path 115" d="M159.2,54.589h-8.3a1.383,1.383,0,1,0,0,2.766h8.3a1.383,1.383,0,0,0,0-2.766Z" transform="translate(-149.522 -54.589)" fill="#1dcdfe"/>
      </g>
    </g>
    <g id="Group_270" data-name="Group 270" transform="translate(30.413 14.967)">
      <g id="Group_269" data-name="Group 269">
        <path id="Path_116" data-name="Path 116" d="M159.2,86.589h-8.3a1.383,1.383,0,1,0,0,2.766h8.3a1.383,1.383,0,1,0,0-2.766Z" transform="translate(-149.522 -86.589)" fill="#1dcdfe"/>
      </g>
    </g>
    <g id="Group_272" data-name="Group 272" transform="translate(54.11 9.436)">
      <g id="Group_271" data-name="Group 271" transform="translate(0)">
        <path id="Path_117" data-name="Path 117" d="M297.4,55.652a1.383,1.383,0,0,0-1.667-1.023l-.072.019L287.64,56.8a1.383,1.383,0,0,0,.7,2.675l.013,0,8.022-2.148A1.383,1.383,0,0,0,297.4,55.652Z" transform="translate(-286.608 -54.591)" fill="#1dcdfe"/>
      </g>
    </g>
    <g id="Group_274" data-name="Group 274" transform="translate(55.553 14.788)">
      <g id="Group_273" data-name="Group 273" transform="translate(0)">
        <path id="Path_118" data-name="Path 118" d="M305.705,86.579a1.383,1.383,0,0,0-1.694-.978h-.006l-8.014,2.148a1.383,1.383,0,0,0,.7,2.675l.013,0,8.021-2.148A1.383,1.383,0,0,0,305.705,86.579Z" transform="translate(-294.96 -85.554)" fill="#1dcdfe"/>
      </g>
    </g>
    <g id="Group_276" data-name="Group 276" transform="translate(69.155 65.548)">
      <g id="Group_275" data-name="Group 275">
        <path id="Path_119" data-name="Path 119" d="M384.376,380.224a1.383,1.383,0,0,0-1.685-.974L374.67,381.4a1.383,1.383,0,0,0,.358,2.719h.006a1.4,1.4,0,0,0,.358-.047l8.014-2.148A1.383,1.383,0,0,0,384.376,380.224Z" transform="translate(-373.644 -379.205)" fill="#1dcdfe"/>
      </g>
    </g>
    <g id="Group_278" data-name="Group 278" transform="translate(70.597 70.892)">
      <g id="Group_277" data-name="Group 277">
        <path id="Path_120" data-name="Path 120" d="M392.721,411.136a1.383,1.383,0,0,0-1.685-.974l-8.022,2.148a1.383,1.383,0,0,0,.358,2.719,1.334,1.334,0,0,0,.358-.048l8.021-2.146A1.383,1.383,0,0,0,392.721,411.136Z" transform="translate(-381.988 -410.117)" fill="#1dcdfe"/>
      </g>
    </g>
    <g id="Group_280" data-name="Group 280" transform="translate(30.413 67.516)">
      <g id="Group_279" data-name="Group 279">
        <path id="Path_121" data-name="Path 121" d="M159.2,390.589h-8.3a1.383,1.383,0,1,0,0,2.766h8.3a1.383,1.383,0,1,0,0-2.766Z" transform="translate(-149.522 -390.589)" fill="#1dcdfe"/>
      </g>
    </g>
    <g id="Group_282" data-name="Group 282" transform="translate(30.413 73.047)">
      <g id="Group_281" data-name="Group 281">
        <path id="Path_122" data-name="Path 122" d="M159.2,422.589h-8.3a1.383,1.383,0,1,0,0,2.766h8.3a1.383,1.383,0,1,0,0-2.766Z" transform="translate(-149.522 -422.589)" fill="#1dcdfe"/>
      </g>
    </g>
    <g id="Group_284" data-name="Group 284" transform="translate(11.053 67.516)">
      <g id="Group_283" data-name="Group 283">
        <path id="Path_123" data-name="Path 123" d="M47.2,390.589H38.9a1.383,1.383,0,1,0,0,2.766h8.3a1.383,1.383,0,1,0,0-2.766Z" transform="translate(-37.522 -390.589)" fill="#1dcdfe"/>
      </g>
    </g>
    <g id="Group_286" data-name="Group 286" transform="translate(11.053 73.047)">
      <g id="Group_285" data-name="Group 285">
        <path id="Path_124" data-name="Path 124" d="M47.2,422.589H38.9a1.383,1.383,0,1,0,0,2.766h8.3a1.383,1.383,0,1,0,0-2.766Z" transform="translate(-37.522 -422.589)" fill="#1dcdfe"/>
      </g>
    </g>
  </g>
</svg>
