<svg style="fill:#1DCDFE" xmlns="http://www.w3.org/2000/svg" width="87.904" height="82.41" viewBox="0 0 87.904 82.41">
  <g id="_4455484" data-name="4455484" transform="translate(0 -15)">
    <path id="Path_111" data-name="Path 111" d="M79.106,49.534a35.16,35.16,0,0,0-70.315.627v.733a1.465,1.465,0,0,0,1.465,1.465h.733v19.53a1.465,1.465,0,1,0,2.93,0V52.395a4.4,4.4,0,0,1,3.846,4.36v16.3a4.4,4.4,0,0,1-4.4,4.4H10.255A7.334,7.334,0,0,1,2.93,70.123V59.685a7.332,7.332,0,0,1,1.7-4.692A1.465,1.465,0,1,0,2.38,53.115,10.267,10.267,0,0,0,0,59.685V70.123A10.271,10.271,0,0,0,8.016,80.13V91.163a6.247,6.247,0,1,0,12.494,0V89.352a3.113,3.113,0,0,1,6.227,0v.366a5.86,5.86,0,0,0,11.721,0V69.532a25.985,25.985,0,0,0,17.829-2.524A4.389,4.389,0,0,0,58.6,63.135V53.346l2.989-1.208a3.714,3.714,0,0,0,0-6.884L45.848,38.893a5.036,5.036,0,0,0-3.792,0L26.312,45.255a3.714,3.714,0,0,0,0,6.884L42.056,58.5a5.036,5.036,0,0,0,3.792,0l4.824-1.949a1.465,1.465,0,0,0-1.1-2.717L44.75,55.784a2.12,2.12,0,0,1-1.6,0L27.41,49.422a.781.781,0,0,1,0-1.451L43.154,41.61a2.12,2.12,0,0,1,1.6,0l15.744,6.362a.781.781,0,0,1,0,1.451c-4.243,1.714-3.914,1.579-4.01,1.626a1.449,1.449,0,0,0-.77.967c-.063.261-.042-.466-.042,11.12a1.463,1.463,0,0,1-.772,1.291,23.066,23.066,0,0,1-21.908,0,1.456,1.456,0,0,1-.761-1.286V59.318a1.465,1.465,0,0,0-2.93,0v3.818A4.383,4.383,0,0,0,31.6,67a25.918,25.918,0,0,0,3.927,1.717v21a2.93,2.93,0,1,1-5.86,0v-.366a6.043,6.043,0,1,0-12.087,0v1.811a3.317,3.317,0,0,1-6.634,0V80.379h2.422a7.334,7.334,0,0,0,7.325-7.325v-16.3a7.334,7.334,0,0,0-7.325-7.325H11.73a32.23,32.23,0,0,1,64.444,0H74.535a7.334,7.334,0,0,0-7.325,7.325v16.3a7.334,7.334,0,0,0,7.325,7.325h.916a1.465,1.465,0,0,0,1.465-1.465V58.539a1.465,1.465,0,0,0-2.93,0V77.413a4.4,4.4,0,0,1-3.846-4.36v-16.3a4.4,4.4,0,0,1,4.4-4.4h3.113a7.334,7.334,0,0,1,7.325,7.325V70.123a7.35,7.35,0,0,1-3.051,5.949,1.465,1.465,0,0,0,1.712,2.378A10.288,10.288,0,0,0,87.9,70.123V59.685a10.27,10.27,0,0,0-8.8-10.15Z" transform="translate(0 0)" fill="#1dcdfe"/>
  </g>
</svg>
