<?xml version="1.0" encoding="iso-8859-1"?>
<!-- Generator: Adobe Illustrator 19.0.0, SVG Export Plug-In . SVG Version: 6.00 Build 0)  -->
<svg version="1.1" id="Capa_1" xmlns="http://www.w3.org/2000/svg" xmlns:xlink="http://www.w3.org/1999/xlink" x="0px" y="0px"
	 viewBox="0 0 416.004 416.004" style="enable-background:new 0 0 416.004 416.004;" xml:space="preserve">
<g>
	<rect x="216.33" style="fill:#5886C5;" width="16" height="64"/>
	
		<rect x="148.446" y="28.111" transform="matrix(-0.7071 0.7071 -0.7071 -0.7071 309.5742 -8.0082)" style="fill:#5886C5;" width="16" height="63.999"/>
	<rect x="96.33" y="120.008" style="fill:#5886C5;" width="64" height="16"/>
	
		<rect x="260.205" y="52.126" transform="matrix(-0.7071 0.7071 -0.7071 -0.7071 541.3406 -103.9781)" style="fill:#5886C5;" width="63.999" height="16"/>
	<rect x="288.354" y="120.008" style="fill:#5886C5;" width="64" height="16"/>
</g>
<path style="fill:#F9E0D2;" d="M312.161,249.939c-27.97,0-40.53,14.045-56.512,30.049V128.004c0-17.601-14.4-32-32-32
	s-32,14.399-32,32v70.143c-10.676-13.104-29.314-15.752-43.152-5.808l-68.912,39.888c-9.519,5.536-15.935,15.792-15.935,27.568
	v52.624c0,57.216,46.368,103.584,103.584,103.584c27.712,0,52.817-10.944,71.392-28.672l109.616-109.472
	C363.292,262.863,333.676,249.939,312.161,249.939z"/>
<g>
	<path style="fill:#F6D2BF;" d="M223.618,126.482v87.111c0,10.577,4.202,20.72,11.681,28.198l9.521,9.52
		c6.614,5.874,10.799,14.432,10.799,23.919V128.004c0-1.83-0.156-3.627-0.455-5.376C251.98,104.01,223.618,107.594,223.618,126.482z
		"/>
	<path style="fill:#F6D2BF;" d="M330.558,252.68l-115.43,115.43c-20.238,20.238-47.686,31.607-76.306,31.607h-27.199
		c16.076,10.262,35.121,16.287,55.611,16.287c54.764,0,71.331-28.612,181.008-138.143C359.165,266.974,346.52,257.23,330.558,252.68
		z"/>
</g>
<g>
</g>
<g>
</g>
<g>
</g>
<g>
</g>
<g>
</g>
<g>
</g>
<g>
</g>
<g>
</g>
<g>
</g>
<g>
</g>
<g>
</g>
<g>
</g>
<g>
</g>
<g>
</g>
<g>
</g>
</svg>
