<svg id="Capa_1" enable-background="new 0 0 512 512" height="512" viewBox="0 0 512 512" width="512" xmlns="http://www.w3.org/2000/svg"><g><path d="m512 248c0 8.28-6.72 15-15 15h-209c-8.28 0-15-6.72-15-15 0-61.21 53.38-111 119-111 66.17 0 120 49.79 120 111z" fill="#dd5958"/><path d="m512 248c0 8.28-6.72 15-15 15h-105v-126c66.17 0 120 49.79 120 111z" fill="#d8225b"/><circle cx="392" cy="96" fill="#f5dccc" r="71"/><path d="m463 96c0 39.15-31.85 71-71 71v-142c39.15 0 71 31.85 71 71z" fill="#f0cabb"/><path d="m239 472c0 8.28-6.72 15-15 15h-209c-8.28 0-15-6.72-15-15 0-61.21 53.38-111 119-111 66.17 0 120 49.79 120 111z" fill="#425796"/><path d="m239 472c0 8.28-6.72 15-15 15h-105v-126c66.17 0 120 49.79 120 111z" fill="#283758"/><circle cx="119" cy="320" fill="#f5dccc" r="71"/><path d="m190 320c0 39.15-31.85 71-71 71v-142c39.15 0 71 31.85 71 71z" fill="#f0cabb"/><path d="m482 297c-196.011 0-193.5-.137-196.693.232-35.834-.253-33.71-.347-35.661.01-24.603 4.474-33.175 35.24-14.712 51.808 39.692 45.099 36.712 41.842 38.066 42.95v33c0 16.542 13.458 30 30 30h179c16.542 0 30-13.458 30-30v-98c0-16.542-13.458-30-30-30z" fill="#d9e6fc"/><path d="m368 391c-8.238 0-15-6.734-15-15 0-11.211 12.018-18.584 22.06-13.221 3.382 1.77 5.998 4.809 7.29 8.87 2.927 9.577-4.273 19.351-14.35 19.351z" fill="#283758"/><path d="m432 391c-3.826 0-7.593-1.458-10.61-4.391-5.824-5.991-5.893-15.141 0-21.22 6.367-6.172 15.717-5.485 21.22 0 2.889 2.972 4.391 6.725 4.391 10.61-.001 8.222-6.712 15.001-15.001 15.001z" fill="#283758"/><path d="m262.354 57.242c-1.958-.358-.613-.258-36.537-.004-6.358-.36-26.89-.238-162.817-.238-16.542 0-30 13.458-30 30v98c0 16.542 13.458 30 30 30h146c16.542 0 30-13.458 30-30v-33c1.361-1.115-1.699 2.231 38.067-42.951 18.428-16.535 9.937-47.325-14.713-51.807z" fill="#eef4ff"/></g></svg>