<svg height="512" viewBox="0 0 58 58" width="512" xmlns="http://www.w3.org/2000/svg"><g id="Page-1" fill="none" fill-rule="evenodd"><g id="077---Combined-Studies"><path id="Path" d="m3 26.18c-.55228475 0-1-.4477153-1-1v-12.18c0-.5522847.44771525-1 1-1s1 .4477153 1 1v12.18c0 .5522847-.44771525 1-1 1z" fill="#f29c1f"/><path id="Path" d="m46 18.97 11.151-4.689c.5140757-.2176552.848059-.7217459.848059-1.28s-.3339833-1.0623448-.848059-1.28l-27.611-11.609c-.3445932-.14894907-.7354068-.14894907-1.08 0l-27.612 11.609c-.51407574.2176552-.84805904.7217459-.84805904 1.28s.3339833 1.0623448.84805904 1.28l11.152 4.689z" fill="#3f5c6c"/><path id="Path" d="m46 17v10c0 1.1045695-.8954305 2-2 2h-30c-1.1045695 0-2-.8954305-2-2v-10s0-4 17-4 17 4 17 4z" fill="#547580"/><circle id="Oval" cx="3" cy="25" fill="#f0c419" r="2"/><path id="Shape" d="m45.05 34c-6.97 0-13.22 5.82-16.05 8.92-.41-.45-.89-.95-1.43-1.47-3.22-3.19-8.65-7.45-14.62-7.45-7.14 0-12.95 5.38-12.95 12s5.81 12 12.95 12c6.97 0 13.22-5.82 16.05-8.92.41.45.9.96 1.45 1.5 3.22 3.17 8.65 7.42 14.6 7.42 7.14 0 12.95-5.38 12.95-12s-5.81-12-12.95-12zm-32.1 20c-4.94 0-8.95-3.59-8.95-8s4.01-8 8.95-8c4.7 0 9.32 3.78 12.02 6.5.56.56 1.04 1.07 1.42 1.5-2.23 2.5-7.77 8-13.44 8zm32.1 0c-4.72 0-9.35-3.81-12.06-6.53-.54-.55-1.01-1.05-1.38-1.47 2.23-2.5 7.77-8 13.44-8 4.94 0 8.95 3.59 8.95 8s-4.01 8-8.95 8z" fill="#ff5364" fill-rule="nonzero"/><g fill="#df4d60"><path id="Path" d="m29 42.92c-.5348752.5106937-1.0327952 1.0587398-1.49 1.64-.44.54-.56.8-1.12 1.44-.38-.43-.86-.94-1.42-1.5.29-.34.55-.67.81-.98.58-.71 1.13-1.38 1.79-2.07.54.52 1.02 1.02 1.43 1.47z"/><path id="Path" d="m32.99 47.47c-.55.63-1.15 1.35-1.48 1.76-.19.22-.65.82-1.06 1.35-.55-.54-1.04-1.05-1.45-1.5.35-.41.66-.75.96-1.12.56-.67 1.04-1.31 1.65-1.96.37.42.84.92 1.38 1.47z"/></g></g></g></svg>