<svg id="Layer_1" data-name="Layer 1" xmlns="http://www.w3.org/2000/svg" xmlns:xlink="http://www.w3.org/1999/xlink"
    viewBox="0 0 595.28 476.59">
    <defs>
        <style>
            .cls-1 {
                fill: url(#linear-gradient);
            }
        </style>
        <linearGradient id="linear-gradient" x1="54.58" y1="230.72" x2="527.92" y2="230.72"
            gradientUnits="userSpaceOnUse">
            <stop offset="0" stop-color="#1DCDFE" />
            <stop offset="0.5" stop-color="#21d0b3" />
            <stop offset="1" stop-color="#1DCDFE" />
        </linearGradient>
    </defs>
    <title>Artboard 1</title>
    <path id="_Path_" data-name="&lt;Path&gt;" class="cls-1"
        d="M446.58,84.47c-54.67,0-106.06,23.28-137.47,62.28-6.65,8.26-10.8,14.13-15.35,23.39,0,0,5.26,10.72,7,16.67l5.84,19.59c6-23.75,16.45-37.14,21.94-44,26.71-33.16,70.82-53,118-53h47.83a8.5,8.5,0,0,1,8.51,8.5v225.5a8.51,8.51,0,0,1-8.51,8.51H446.58c-78.76,0-142.83-54.4-142.83-121.26,0-39.42-17.7-76.37-49.84-104-31.61-27.22-73.51-42.2-118-42.2H68.76A14.17,14.17,0,0,0,54.58,98.64V362.81A14.18,14.18,0,0,0,68.76,377h67.16c34.11,0,66.94-8.86,94.94-25.61,27.66-16.55,44.81-35.93,58-60.25A166.7,166.7,0,0,1,282,274.5l-6.12-19.3C260.05,318.69,194.52,352,135.92,352H88.09a8.51,8.51,0,0,1-8.51-8.51V118a8.5,8.5,0,0,1,8.51-8.5h47.83c78.76,0,142.83,54.39,142.83,121.25,0,39.43,17.7,76.38,49.84,104C360.2,362,402.1,377,446.58,377h67.16a14.18,14.18,0,0,0,14.18-14.17V98.64a14.17,14.17,0,0,0-14.18-14.17Z" />
</svg>